{
    "asset" : {
        "generator" : "Khronos glTF Blender I/O v1.3.48",
        "version" : "2.0"
    },
    "scene" : 0,
    "scenes" : [
        {
            "name" : "Scene",
            "nodes" : [
                0,
                1,
                2,
                3,
                4
            ]
        }
    ],
    "nodes" : [
        {
            "name" : "Light",
            "rotation" : [
                0.16907575726509094,
                0.7558803558349609,
                -0.27217137813568115,
                0.570947527885437
            ],
            "translation" : [
                4.076245307922363,
                8.395264625549316,
                -1.0054539442062378
            ]
        },
        {
            "name" : "Ref1",
            "rotation" : [
                0.7071068286895752,
                0,
                0,
                0.7071068286895752
            ],
            "scale" : [
                1.776997685432434,
                1.776997685432434,
                1.776997685432434
            ],
            "translation" : [
                -0.12998627126216888,
                4.467193603515625,
                0
            ]
        },
        {
            "mesh" : 0,
            "name" : "Lamp"
        },
        {
            "mesh" : 1,
            "name" : "Lamplight",
            "scale" : [
                0.10925529897212982,
                0.15346284210681915,
                0.10925529897212982
            ],
            "translation" : [
                -0.06562014669179916,
                4.64201021194458,
                -0.0029168128967285156
            ]
        },
        {
            "mesh" : 2,
            "name" : "Transformer",
            "translation" : [
                -0.8525952696800232,
                5.74151611328125,
                -0.004214197397232056
            ]
        }
    ],
    "materials" : [
        {
            "doubleSided" : true,
            "emissiveFactor" : [
                0,
                0,
                0
            ],
            "name" : "Material.001",
            "pbrMetallicRoughness" : {
                "baseColorTexture" : {
                    "index" : 0,
                    "texCoord" : 0
                },
                "metallicFactor" : 0,
                "roughnessFactor" : 0.5
            }
        }
    ],
    "meshes" : [
        {
            "name" : "Circle",
            "primitives" : [
                {
                    "attributes" : {
                        "POSITION" : 0,
                        "NORMAL" : 1,
                        "TEXCOORD_0" : 2,
                        "COLOR_0" : 3
                    },
                    "indices" : 4,
                    "material" : 0
                }
            ]
        },
        {
            "name" : "Cube",
            "primitives" : [
                {
                    "attributes" : {
                        "POSITION" : 5,
                        "NORMAL" : 6,
                        "TEXCOORD_0" : 7
                    },
                    "indices" : 8,
                    "material" : 0
                }
            ]
        },
        {
            "name" : "Cylinder",
            "primitives" : [
                {
                    "attributes" : {
                        "POSITION" : 9,
                        "NORMAL" : 10,
                        "TEXCOORD_0" : 11
                    },
                    "indices" : 12,
                    "material" : 0
                }
            ]
        }
    ],
    "textures" : [
        {
            "sampler" : 0,
            "source" : 0
        }
    ],
    "images" : [
        {
            "bufferView" : 5,
            "mimeType" : "image/png",
            "name" : "Image"
        }
    ],
    "accessors" : [
        {
            "bufferView" : 0,
            "componentType" : 5126,
            "count" : 9771,
            "max" : [
                1.4231624603271484,
                8.776790618896484,
                0.3550194501876831
            ],
            "min" : [
                -1.4231624603271484,
                0,
                -0.3290460407733917
            ],
            "type" : "VEC3"
        },
        {
            "bufferView" : 1,
            "componentType" : 5126,
            "count" : 9771,
            "type" : "VEC3"
        },
        {
            "bufferView" : 2,
            "componentType" : 5126,
            "count" : 9771,
            "type" : "VEC2"
        },
        {
            "bufferView" : 3,
            "componentType" : 5126,
            "count" : 9771,
            "type" : "VEC4"
        },
        {
            "bufferView" : 4,
            "componentType" : 5123,
            "count" : 16548,
            "type" : "SCALAR"
        },
        {
            "bufferView" : 6,
            "componentType" : 5126,
            "count" : 1448,
            "max" : [
                0.5833953619003296,
                1.5059452056884766,
                4.880007743835449
            ],
            "min" : [
                -6.4825310707092285,
                -2.7954626083374023,
                1.2235603332519531
            ],
            "type" : "VEC3"
        },
        {
            "bufferView" : 7,
            "componentType" : 5126,
            "count" : 1448,
            "type" : "VEC3"
        },
        {
            "bufferView" : 8,
            "componentType" : 5126,
            "count" : 1448,
            "type" : "VEC2"
        },
        {
            "bufferView" : 9,
            "componentType" : 5123,
            "count" : 2136,
            "type" : "SCALAR"
        },
        {
            "bufferView" : 10,
            "componentType" : 5126,
            "count" : 4180,
            "max" : [
                0.6030570268630981,
                1.085577130317688,
                0.47826120257377625
            ],
            "min" : [
                -0.4197905659675598,
                -0.6652064919471741,
                -0.45174917578697205
            ],
            "type" : "VEC3"
        },
        {
            "bufferView" : 11,
            "componentType" : 5126,
            "count" : 4180,
            "type" : "VEC3"
        },
        {
            "bufferView" : 12,
            "componentType" : 5126,
            "count" : 4180,
            "type" : "VEC2"
        },
        {
            "bufferView" : 13,
            "componentType" : 5123,
            "count" : 7368,
            "type" : "SCALAR"
        }
    ],
    "bufferViews" : [
        {
            "buffer" : 0,
            "byteLength" : 117252,
            "byteOffset" : 0
        },
        {
            "buffer" : 0,
            "byteLength" : 117252,
            "byteOffset" : 117252
        },
        {
            "buffer" : 0,
            "byteLength" : 78168,
            "byteOffset" : 234504
        },
        {
            "buffer" : 0,
            "byteLength" : 156336,
            "byteOffset" : 312672
        },
        {
            "buffer" : 0,
            "byteLength" : 33096,
            "byteOffset" : 469008
        },
        {
            "buffer" : 0,
            "byteLength" : 2651,
            "byteOffset" : 502104
        },
        {
            "buffer" : 0,
            "byteLength" : 17376,
            "byteOffset" : 504756
        },
        {
            "buffer" : 0,
            "byteLength" : 17376,
            "byteOffset" : 522132
        },
        {
            "buffer" : 0,
            "byteLength" : 11584,
            "byteOffset" : 539508
        },
        {
            "buffer" : 0,
            "byteLength" : 4272,
            "byteOffset" : 551092
        },
        {
            "buffer" : 0,
            "byteLength" : 50160,
            "byteOffset" : 555364
        },
        {
            "buffer" : 0,
            "byteLength" : 50160,
            "byteOffset" : 605524
        },
        {
            "buffer" : 0,
            "byteLength" : 33440,
            "byteOffset" : 655684
        },
        {
            "buffer" : 0,
            "byteLength" : 14736,
            "byteOffset" : 689124
        }
    ],
    "samplers" : [
        {
            "magFilter" : 9728,
            "minFilter" : 9984
        }
    ],
    "buffers" : [
        {
            "byteLength" : 703860,
            "uri" : "data:application/octet-stream;base64,"
        }
    ]
}
