{
    "asset" : {
        "generator" : "Khronos glTF Blender I/O v1.3.48",
        "version" : "2.0"
    },
    "scene" : 0,
    "scenes" : [
        {
            "name" : "Scene",
            "nodes" : [
                0
            ]
        }
    ],
    "nodes" : [
        {
            "mesh" : 0,
            "name" : "Ladder Middle"
        }
    ],
    "materials" : [
        {
            "doubleSided" : true,
            "emissiveFactor" : [
                0,
                0,
                0
            ],
            "name" : "Material",
            "pbrMetallicRoughness" : {
                "baseColorTexture" : {
                    "index" : 0,
                    "texCoord" : 0
                },
                "metallicFactor" : 0,
                "roughnessFactor" : 0.4000000059604645
            }
        }
    ],
    "meshes" : [
        {
            "name" : "Cube.001",
            "primitives" : [
                {
                    "attributes" : {
                        "POSITION" : 0,
                        "NORMAL" : 1,
                        "TEXCOORD_0" : 2
                    },
                    "indices" : 3,
                    "material" : 0
                }
            ]
        }
    ],
    "textures" : [
        {
            "source" : 0
        }
    ],
    "images" : [
        {
            "bufferView" : 4,
            "mimeType" : "image/jpeg",
            "name" : "arroway.de_metal+plate+05_d100"
        }
    ],
    "accessors" : [
        {
            "bufferView" : 0,
            "componentType" : 5126,
            "count" : 888,
            "max" : [
                1.0643501281738281,
                -0.12717922031879425,
                0.5823894739151001
            ],
            "min" : [
                -1.0643501281738281,
                -1.3448446989059448,
                0.026697903871536255
            ],
            "type" : "VEC3"
        },
        {
            "bufferView" : 1,
            "componentType" : 5126,
            "count" : 888,
            "type" : "VEC3"
        },
        {
            "bufferView" : 2,
            "componentType" : 5126,
            "count" : 888,
            "type" : "VEC2"
        },
        {
            "bufferView" : 3,
            "componentType" : 5123,
            "count" : 1458,
            "type" : "SCALAR"
        }
    ],
    "bufferViews" : [
        {
            "buffer" : 0,
            "byteLength" : 10656,
            "byteOffset" : 0
        },
        {
            "buffer" : 0,
            "byteLength" : 10656,
            "byteOffset" : 10656
        },
        {
            "buffer" : 0,
            "byteLength" : 7104,
            "byteOffset" : 21312
        },
        {
            "buffer" : 0,
            "byteLength" : 2916,
            "byteOffset" : 28416
        },
        {
            "buffer" : 0,
            "byteLength" : 64896,
            "byteOffset" : 31332
        }
    ],
    "buffers" : [
        {
            "byteLength" : 96228,
            "uri" : "data:application/octet-stream;base64,"
        }
    ]
}
