{
    "asset" : {
        "generator" : "Khronos glTF Blender I/O v1.3.48",
        "version" : "2.0"
    },
    "scene" : 0,
    "scenes" : [
        {
            "name" : "Scene",
            "nodes" : [
                0
            ]
        }
    ],
    "nodes" : [
        {
            "mesh" : 0,
            "name" : "Hat"
        }
    ],
    "meshes" : [
        {
            "name" : "Cube.001",
            "primitives" : [
                {
                    "attributes" : {
                        "POSITION" : 0,
                        "NORMAL" : 1,
                        "TEXCOORD_0" : 2
                    },
                    "indices" : 3
                }
            ]
        }
    ],
    "accessors" : [
        {
            "bufferView" : 0,
            "componentType" : 5126,
            "count" : 5632,
            "max" : [
                1.25,
                2.4740657806396484,
                1.25
            ],
            "min" : [
                -1.25,
                0.1772567331790924,
                -1.25
            ],
            "type" : "VEC3"
        },
        {
            "bufferView" : 1,
            "componentType" : 5126,
            "count" : 5632,
            "type" : "VEC3"
        },
        {
            "bufferView" : 2,
            "componentType" : 5126,
            "count" : 5632,
            "type" : "VEC2"
        },
        {
            "bufferView" : 3,
            "componentType" : 5123,
            "count" : 5664,
            "type" : "SCALAR"
        }
    ],
    "bufferViews" : [
        {
            "buffer" : 0,
            "byteLength" : 67584,
            "byteOffset" : 0
        },
        {
            "buffer" : 0,
            "byteLength" : 67584,
            "byteOffset" : 67584
        },
        {
            "buffer" : 0,
            "byteLength" : 45056,
            "byteOffset" : 135168
        },
        {
            "buffer" : 0,
            "byteLength" : 11328,
            "byteOffset" : 180224
        }
    ],
    "buffers" : [
        {
            "byteLength" : 191552,
            "uri" : "data:application/octet-stream;base64,"
        }
    ]
}
